<?xml version="1.0" encoding="UTF-8"?>
<svg id="Capa_1" data-name="Capa 1" xmlns="http://www.w3.org/2000/svg" xmlns:xlink="http://www.w3.org/1999/xlink" viewBox="0 0 30 30">
  <defs>
    <style>
      .cls-1 {
        fill: url(#Degradado_sin_nombre_203-3);
      }

      .cls-2 {
        fill: url(#Degradado_sin_nombre_203);
      }

      .cls-3 {
        fill: #8f8153;
      }

      .cls-4 {
        fill: url(#Degradado_sin_nombre_22);
      }

      .cls-5 {
        fill: #ded6c0;
      }

      .cls-6 {
        fill: url(#Degradado_sin_nombre_203-2);
      }
    </style>
    <radialGradient id="Degradado_sin_nombre_22" data-name="Degradado sin nombre 22" cx="15" cy="15" fx="15" fy="15" r="26.13" gradientTransform="translate(-.06 -.13) rotate(-.24) scale(1 1.01)" gradientUnits="userSpaceOnUse">
      <stop offset=".55" stop-color="#fff"/>
      <stop offset=".62" stop-color="#f3f1e8"/>
      <stop offset=".73" stop-color="#e2dbc5"/>
      <stop offset=".76" stop-color="#e6dfc9"/>
      <stop offset=".79" stop-color="#f1ebd7"/>
      <stop offset=".82" stop-color="#fff9e8"/>
      <stop offset=".83" stop-color="#f9f3e1"/>
      <stop offset=".86" stop-color="#eae3ce"/>
      <stop offset=".9" stop-color="#e1d9c3"/>
      <stop offset=".94" stop-color="#ded6c0"/>
      <stop offset="1" stop-color="#e6dec9"/>
    </radialGradient>
    <linearGradient id="Degradado_sin_nombre_203" data-name="Degradado sin nombre 203" x1="20.42" y1="12.65" x2="26.53" y2="12.65" gradientUnits="userSpaceOnUse">
      <stop offset="0" stop-color="#b3ab9a"/>
      <stop offset=".12" stop-color="#c2baa7"/>
      <stop offset=".38" stop-color="#ded6c0"/>
      <stop offset=".53" stop-color="#dfd8c2"/>
      <stop offset=".57" stop-color="#e2dbc5"/>
      <stop offset=".59" stop-color="#e5dec9"/>
      <stop offset=".62" stop-color="#f0ead6"/>
      <stop offset=".64" stop-color="#fff9e8"/>
      <stop offset=".66" stop-color="#f9f3e1"/>
      <stop offset=".73" stop-color="#eae3ce"/>
      <stop offset=".8" stop-color="#e1d9c3"/>
      <stop offset=".87" stop-color="#ded6c0"/>
      <stop offset="1" stop-color="#e6dec9"/>
    </linearGradient>
    <linearGradient id="Degradado_sin_nombre_203-2" data-name="Degradado sin nombre 203" x1="6.78" y1="15.19" x2="27.28" y2="15.19" xlink:href="#Degradado_sin_nombre_203"/>
    <linearGradient id="Degradado_sin_nombre_203-3" data-name="Degradado sin nombre 203" x1="2.93" y1="10.6" x2="7.1" y2="10.6" xlink:href="#Degradado_sin_nombre_203"/>
  </defs>
  <rect class="cls-4" width="30" height="30" rx="3.42" ry="3.42"/>
  <g>
    <path class="cls-3" d="M25.13,13.34s.02,0,.03,0c.01,0,.02,0,.03,0,.03,0,.05,0,.08,0,0,0,.01,0,.02,0,.01,0,.02,0,.03,0,.01,0,.02,0,.03,0,0,0,0,0,0,0,.02,0,.04-.01.06-.02,0,0,0,0,0,0,.02,0,.05-.02.07-.03,0,0,0,0,0,0,0,0,.02-.01.03-.02.01,0,.02-.02.04-.03,0,0,0,0,0-.01.04-.03.07-.07.1-.12,0,0,0-.02.01-.03.02-.04.05-.09.07-.15,0,0,0-.02,0-.03.02-.06.03-.13.05-.21,0-.02,0-.03,0-.05.01-.08.02-.16.02-.26,0-.14-.06-.25-.18-.33l-.48-.32c.13.09.19.2.18.33,0,.09-.01.18-.02.26,0,.02,0,.04,0,.05-.01.08-.03.15-.05.21,0,0,0,.02-.01.03-.02.06-.04.11-.07.15,0,0,0,.02-.02.03-.03.05-.06.09-.1.12-.01.01-.03.03-.04.04,0,0-.02.01-.03.02-.03.02-.05.03-.09.04-.02,0-.04.01-.07.02-.01,0-.02,0-.03,0-.02,0-.03,0-.05,0-.04,0-.08,0-.11-.02,0,0-.02,0-.03,0-.04-.01-.08-.03-.11-.06l.48.32s.08.04.11.06Z"/>
    <path class="cls-3" d="M24.14,12.48s-.01,0-.02,0c0,0,0,0-.01,0,0,0,0,0,0,0,0,0,0,0-.01,0,0,0,0,0-.01,0,0,0-.01,0-.02,0,0,0,0,0,0,0,0,0,0,0,0,0,0,0,0,0-.02.01-.01.01-.03.03-.05.05-.08.1-.12.19-.13.27,0,.16.09.32.27.47.04.03.08.06.12.09l.48.32s-.08-.05-.12-.09c-.19-.15-.28-.31-.27-.47,0-.08.04-.17.13-.27.02-.03.04-.05.06-.06,0,0,0,0,0,0,.02-.01.04-.02.05-.02.01,0,.02,0,.03,0h0s0,0,0,0l-.48-.32Z"/>
    <path class="cls-3" d="M20.06,13.67l.48.32s-.03-.02-.04-.03c-.08-.07-.1-.16-.07-.27,0-.04.03-.07.05-.12.15-.16.31-.32.46-.47.05-.05.1-.1.15-.15.1-.1.21-.2.31-.29.09-.08.19-.16.28-.25.05-.04.09-.08.14-.12.14-.12.29-.24.43-.35.09-.07.18-.13.28-.19.04-.03.08-.05.12-.07.03-.02.07-.04.1-.06.05-.02.09-.05.14-.07.03-.02.07-.03.11-.05.05-.02.1-.04.15-.06.03-.01.07-.03.1-.04.06-.02.11-.03.17-.05.03,0,.06-.02.1-.03.03,0,.06-.01.08-.02.07-.02.15-.03.22-.04.04,0,.08,0,.12-.01.07,0,.13-.01.2-.02.08,0,.16,0,.25,0,.12,0,.3.01.54.03.12.01.24.03.36.05.12.03.24.06.36.1.15.05.29.12.42.21l-.48-.32c-.13-.09-.27-.16-.42-.21-.12-.04-.24-.07-.36-.1,0,0,0,0,0,0-.12-.03-.24-.04-.36-.05-.24-.02-.42-.03-.54-.03-.07,0-.13,0-.2,0-.02,0-.03,0-.05,0-.07,0-.13.01-.2.02-.04,0-.08,0-.12.01-.08.01-.15.03-.22.04-.02,0-.05,0-.07.01,0,0,0,0-.01,0-.03,0-.07.02-.1.03-.06.01-.11.03-.17.05-.04.01-.07.03-.11.04-.04.01-.08.03-.12.04,0,0-.02,0-.03.01-.04.01-.07.03-.11.05-.05.02-.09.04-.14.07-.04.02-.07.04-.1.06-.03.02-.06.03-.09.05-.01,0-.02.01-.03.02-.09.06-.19.12-.28.19-.14.11-.29.23-.43.35-.05.04-.09.08-.14.12-.08.07-.16.14-.24.21-.01.01-.03.03-.04.04-.1.09-.21.19-.31.29-.05.05-.1.1-.15.15-.15.15-.31.3-.46.46,0,0,0,0,0,0-.08.16-.08.29.02.38.01.01.03.02.04.03Z"/>
    <path class="cls-2" d="M26.28,11.81c.18.16.26.39.25.67,0,.14-.02.3-.06.47-.03.17-.1.33-.19.47-.09.14-.23.26-.4.35-.14.07-.32.11-.55.11-.05,0-.1,0-.16,0-.18-.02-.36-.11-.55-.26-.19-.15-.28-.31-.27-.47,0-.08.04-.17.13-.27.05-.06.09-.09.12-.09.03,0,.05.02.06.05.2.35.41.52.62.52.05,0,.1,0,.15-.03.26-.1.4-.42.42-.95,0-.18-.11-.32-.33-.41s-.52-.14-.88-.14c-.46,0-.86.06-1.21.17-.34.11-.66.27-.93.47-.28.2-.54.43-.8.69-.26.25-.52.53-.79.84-.06.02-.12.04-.18.04-.08,0-.15-.03-.21-.08-.1-.09-.1-.22-.02-.38.58-.61,1.17-1.15,1.78-1.62.61-.47,1.32-.7,2.14-.7.12,0,.3.01.54.03s.48.07.72.15c.24.08.45.2.62.37Z"/>
  </g>
  <g>
    <path class="cls-3" d="M25.39,20.33c.06-.02.11-.04.17-.06,0,0,.02,0,.03-.01.07-.03.14-.06.21-.09.03-.02.07-.03.1-.05.1-.05.2-.1.29-.15.02-.01.04-.02.06-.03.01,0,.02-.02.03-.02.02-.01.04-.02.06-.04.02-.01.04-.03.06-.04.02-.01.03-.03.05-.04,0,0,.01-.01.02-.02,0,0,.01-.01.02-.02.03-.03.06-.06.08-.09,0,0,.02-.02.02-.03.03-.04.05-.08.07-.11,0,0,0-.02.01-.03.02-.03.03-.06.04-.1,0-.01,0-.02,0-.03,0-.04.02-.08.02-.13,0-.28-.09-.5-.31-.64l-.55-.37c.21.14.31.36.31.64,0,.04,0,.09-.02.13,0,.01,0,.02,0,.03,0,.03-.02.07-.04.1,0,0,0,.02-.01.03-.02.04-.05.08-.07.11,0,0-.01.02-.02.03-.02.03-.05.06-.08.09-.01.01-.02.02-.04.03-.02.01-.03.03-.05.04-.02.01-.04.03-.06.04-.02.01-.04.02-.06.04-.03.02-.06.04-.09.06-.09.05-.19.1-.29.15-.03.02-.07.03-.1.05-.07.03-.14.06-.21.09-.06.03-.13.05-.19.08-.03.01-.07.03-.1.04-.1.04-.21.07-.31.11-.45.14-.91.26-1.36.37-.44.1-.77.2-1,.29l-.04-.46-.55-.37.05.6c-.02.06-.04.12-.07.18,0,.01-.01.02-.02.04-.03.05-.06.1-.1.15,0,0-.01.01-.02.02-.03.04-.07.07-.11.1-.02.02-.05.04-.07.05-.05.03-.1.07-.16.09-.12.06-.24.11-.37.15-.04-.04-.08-.1-.1-.18-.05-.17-.08-.3-.07-.37,0-.07.01-.13.03-.19,0-.02.01-.03.02-.05.01-.04.03-.08.05-.12,0-.01.02-.03.03-.04.03-.05.07-.09.12-.14,0,0,0,0,0,0,.05-.04.1-.08.17-.11.06-.03.12-.06.18-.08.08-.03.16-.06.25-.08,0,0,.01,0,.02,0,.09-.02.19-.03.29-.04.05,0,.1,0,.15,0,.04,0,.08,0,.12.02.05.01.1.03.15.05,0,0,0,0,0,0h0s0,0,0,0v-.22s.52.36.52.36c.17-.23.34-.49.51-.75.17-.27.35-.51.56-.72.1-.1.21-.2.32-.28,0,0,0,0,0,0,.12-.09.24-.17.38-.24.05-.03.11-.05.17-.07.06-.02.12-.04.18-.06.03,0,.05-.02.08-.02.02,0,.04,0,.07-.01.06-.01.11-.02.17-.03.03,0,.06,0,.09,0,.07,0,.15-.01.23-.01.12,0,.23,0,.35.02.04,0,.07.01.11.02.07.01.15.02.22.04.08.02.16.04.24.07.04.01.08.02.12.03.12.04.23.09.34.14.08.04.15.08.22.13h0s0,0,0,0l-.55-.37c-.07-.04-.14-.09-.22-.13-.11-.05-.23-.1-.34-.14-.04-.01-.08-.02-.12-.03-.08-.02-.16-.05-.24-.07,0,0-.02,0-.02,0-.07-.01-.13-.02-.2-.03-.04,0-.07-.01-.11-.02-.11-.01-.23-.02-.35-.02-.05,0-.1,0-.15,0-.03,0-.05,0-.08,0-.03,0-.06,0-.09,0-.06,0-.12.02-.17.03-.02,0-.04,0-.07.01,0,0-.01,0-.02,0-.02,0-.04.01-.06.02-.06.02-.12.03-.18.06-.01,0-.02,0-.03.01-.05.02-.09.04-.14.06-.06.03-.11.06-.17.09-.07.04-.14.09-.21.14,0,0,0,0,0,0-.06.05-.12.09-.18.15-.05.04-.1.09-.14.14-.2.21-.39.45-.56.72-.16.26-.32.49-.48.72l-.05-.99-.55-.37.07,1.26s-.1-.04-.15-.05c0,0,0,0-.01,0-.04,0-.08-.01-.11-.01-.04,0-.07,0-.11,0-.01,0-.03,0-.04,0-.1,0-.2.02-.29.04,0,0-.01,0-.02,0,0,0,0,0,0,0-.09.02-.17.05-.25.08,0,0-.01,0-.02,0-.05.02-.11.05-.16.07-.02.01-.04.02-.06.03-.04.02-.08.05-.11.08,0,0,0,0,0,0,0,0,0,0,0,0-.04.04-.08.09-.11.13,0,.01-.02.03-.03.04-.02.04-.04.08-.05.12,0,.02-.01.03-.02.05-.02.06-.03.12-.03.19,0,.07.02.19.07.37.03.1.08.18.14.22l.5.34s0,0,0,0c-.04.01-.08.03-.12.04-.14.05-.29.09-.44.13-.34.08-.64.17-.91.28,0,0,0,0-.01,0-.05.02-.1.05-.14.07,0,0,0,0-.01,0,0,0-.02.01-.03.02-.02.02-.04.03-.06.05-.01.01-.02.02-.03.04,0,0-.01.01-.02.02-.03.03-.05.07-.07.11,0,0,0,.02,0,.02-.01.04-.02.08-.03.13,0,.05,0,.09.02.13.01.03.03.06.06.08l.55.37c-.06-.04-.09-.11-.08-.21,0-.05.01-.09.03-.13,0,0,0-.02,0-.02.02-.04.04-.08.07-.11,0,0,.01-.01.02-.02.03-.03.06-.06.1-.08,0,0,.02-.01.03-.02.05-.03.1-.06.17-.08.27-.11.57-.2.91-.28.15-.04.29-.08.44-.13.04-.01.08-.03.12-.04.05-.02.09-.03.14-.05.09-.04.17-.07.25-.11,0,0,0,0,0,0-.01.24-.03.54-.06.89-.04.47-.12.98-.25,1.52-.13.55-.34,1.11-.64,1.68-.07.14-.15.28-.24.41-.03.04-.06.09-.09.13-.06.09-.12.18-.19.26-.04.05-.08.1-.13.15-.06.07-.12.15-.19.22-.05.05-.1.1-.15.15-.08.07-.15.15-.23.22-.12.11-.25.21-.39.3-.04.03-.09.06-.13.09-.09.06-.19.12-.29.18-.07.04-.14.08-.21.12-.09.05-.19.1-.28.14-.08.04-.15.07-.23.11-.14.06-.29.12-.44.18-.11.04-.22.08-.34.11-.04.01-.08.02-.12.03-.08.02-.16.04-.24.06-.05.01-.1.02-.15.03-.07.01-.13.03-.2.04-.05.01-.11.02-.17.03-.07.01-.14.02-.21.03-.06,0-.12.02-.18.02-.07,0-.14.02-.22.02-.06,0-.12.01-.18.02-.07,0-.15.01-.23.02-.06,0-.11,0-.17,0-.18,0-.35.01-.54.01-.17,0-.34,0-.51-.01-.05,0-.11,0-.16-.01-.11,0-.22-.01-.32-.02-.06,0-.12-.02-.19-.02-.09-.01-.19-.02-.28-.04-.06,0-.13-.02-.19-.03-.08-.02-.17-.03-.25-.05-.09-.02-.17-.04-.25-.06-.06-.02-.12-.03-.18-.05-.08-.02-.17-.05-.25-.08-.05-.02-.11-.03-.16-.05-.09-.03-.17-.07-.26-.11-.04-.02-.09-.03-.13-.05-.12-.06-.25-.12-.36-.18-.18-.1-.36-.21-.52-.32h0s0,0,0,0l.55.37c.17.11.34.22.52.32.12.07.24.13.36.18.04.02.09.03.13.05.09.04.17.07.26.11.05.02.11.04.16.05.08.03.16.06.25.08.06.02.12.03.18.05.08.02.16.04.25.06.01,0,.02,0,.03,0,.07.01.15.03.22.04.06.01.13.02.19.03.09.01.18.02.28.04.06,0,.12.02.18.02.11.01.22.02.32.02.05,0,.11,0,.16.01.17,0,.33.01.51.01.18,0,.36,0,.54-.01.02,0,.04,0,.07,0,.04,0,.07,0,.1,0,.08,0,.15,0,.23-.02.06,0,.12-.01.18-.02.07,0,.15-.02.22-.02.06,0,.12-.01.18-.02.07,0,.14-.02.21-.03.06,0,.11-.02.17-.03.07-.01.13-.03.2-.04.04,0,.07-.01.11-.02.02,0,.03,0,.04-.01.08-.02.16-.04.24-.06.04-.01.08-.02.11-.03.11-.03.23-.07.34-.11.1-.04.2-.07.29-.11.05-.02.1-.05.15-.07.08-.03.16-.07.23-.11.1-.05.19-.09.28-.14.07-.04.14-.08.21-.12.03-.02.06-.03.09-.05.07-.04.13-.09.2-.13.04-.03.09-.06.13-.09.14-.1.27-.2.39-.3.02-.02.04-.03.05-.05.06-.06.12-.12.18-.17.05-.05.1-.1.15-.15.07-.07.13-.15.19-.22.04-.05.09-.1.13-.15.07-.08.13-.17.19-.26.03-.04.06-.09.09-.13.09-.13.16-.27.24-.41.29-.57.51-1.13.64-1.68.13-.55.22-1.06.25-1.52.04-.47.06-.84.07-1.12l-.38-.25s.03-.02.04-.04c.01-.01.03-.02.05-.03.02-.02.04-.04.06-.07,0,0,.01-.01.02-.02.04-.05.07-.1.1-.15,0-.01.01-.02.02-.04.03-.06.05-.11.07-.18v-.11s.51.35.51.35c.23-.09.57-.19,1.03-.3.45-.11.91-.23,1.36-.37.11-.03.21-.07.31-.11.03-.01.07-.02.1-.04Z"/>
    <path class="cls-3" d="M20.64,22.56s.02-.04.04-.06c.02-.02.04-.04.07-.05,0,0,0,0,0,0,.03-.01.06-.02.1-.02.02,0,.04,0,.06,0,.02,0,.04.01.06.02l-.55-.37s-.04-.02-.06-.02c0,0,0,0,0,0-.02,0-.04,0-.06,0,0,0-.01,0-.02,0-.02,0-.04,0-.06,0-.01,0-.02,0-.03,0,0,0,0,0,0,0,0,0,0,0,0,0-.01,0-.02,0-.03.01-.01,0-.02.01-.03.02,0,0,0,0,0,0-.02.02-.03.04-.04.06,0,.01-.01.02-.02.03-.01.04-.02.08-.02.13,0,.08.02.14.07.17l.55.37c-.05-.03-.08-.09-.07-.17,0-.05,0-.09.02-.13,0-.01.01-.02.02-.03Z"/>
    <path class="cls-3" d="M19.54,20.67s-.05-.02-.07-.03c0,0,0,0,0,0-.03,0-.05,0-.08,0,0,0-.02,0-.02,0-.02,0-.05,0-.07,0,0,0-.02,0-.02,0,0,0,0,0,0,0,0,0,0,0-.01,0-.01,0-.02.01-.03.02-.01,0-.02.01-.03.02,0,0,0,0,0,0-.02.02-.03.04-.04.06,0,.01-.01.02-.02.03-.01.04-.02.08-.02.12,0,.05,0,.1.02.13s.03.06.06.08l.55.37c-.06-.04-.08-.11-.08-.21,0-.05,0-.09.02-.12,0-.01.01-.02.02-.03.01-.02.02-.04.04-.06.02-.02.05-.04.08-.05,0,0,0,0,0,0,.03-.01.07-.02.12-.02.03,0,.06,0,.09,0,.03,0,.05.02.07.03,0,0,0,0,0,0h0s0,0,0,0l-.55-.37Z"/>
    <path class="cls-3" d="M17.88,21.17c-.07-.04-.13-.08-.21-.11-.02,0-.04-.02-.07-.03-.05-.02-.1-.04-.16-.05-.01,0-.03,0-.04-.01-.01,0-.02,0-.03,0-.08-.02-.17-.03-.26-.03-.02,0-.04,0-.05,0,0,0-.02,0-.03,0-.07,0-.14.01-.22.03,0,0,0,0,0,0-.03,0-.07.02-.11.03-.02,0-.03,0-.05.01-.05.02-.11.04-.17.06,0,0,0,0,0,0-.04.01-.07.03-.1.05-.01,0-.02.02-.03.02,0,0-.02.01-.03.02,0,0-.02.01-.02.02-.03.03-.05.05-.08.09,0,0,0,0,0,.01-.02.04-.04.08-.06.12,0,.01,0,.02-.01.04-.01.05-.02.1-.02.16,0,.05,0,.09,0,.13.02.12.09.22.19.29l.55.37c-.13-.09-.2-.23-.2-.42,0-.06.01-.11.02-.16,0-.01,0-.03.01-.04.01-.04.03-.08.06-.12l.51.34s.08.04.14.06c.04.01.07.02.09.04l-.55-.37s-.06-.03-.09-.04c-.04-.01-.07-.02-.09-.03,0,0,0,0,0,0,.03-.04.06-.07.1-.1,0,0,.02-.01.03-.02.04-.03.09-.06.14-.08.06-.02.11-.04.17-.06.02,0,.03,0,.05-.01.04-.01.07-.02.11-.03.08-.02.15-.03.22-.03.03,0,.05,0,.08,0,.09,0,.17.01.26.03.02,0,.05.01.07.02.05.01.11.03.16.05.02,0,.04.02.07.03.07.03.14.07.21.11l-.55-.37Z"/>
    <path class="cls-3" d="M18.36,15.3h0s0,0,0,0l.55.37c.48.12.93.24,1.35.37.42.13.79.28,1.11.45.11.06.22.13.32.19h0s0,0,0,0l-.55-.37c-.1-.07-.2-.13-.32-.19-.32-.17-.69-.33-1.11-.45-.21-.06-.43-.13-.65-.19s-.46-.12-.7-.18Z"/>
    <path class="cls-3" d="M13.85,22.94s.02-.04.04-.06c.02-.02.04-.04.07-.05,0,0,0,0,0,0,.03-.01.06-.02.1-.02.02,0,.04,0,.06,0,.02,0,.04.01.06.02l-.55-.37s-.04-.02-.06-.02c0,0,0,0,0,0-.02,0-.04,0-.06,0,0,0-.01,0-.02,0-.02,0-.04,0-.05,0-.01,0-.02,0-.03,0,0,0,0,0,0,0,0,0,0,0,0,0-.01,0-.02,0-.03.02-.01,0-.02.01-.03.02,0,0,0,0,0,0-.02.02-.03.04-.04.06,0,.01-.01.02-.02.03-.01.04-.02.08-.02.13,0,.04,0,.07.02.1.01.03.03.05.06.07l.55.37c-.05-.03-.07-.09-.07-.17,0-.05,0-.09.02-.13,0-.01.01-.02.02-.03Z"/>
    <path class="cls-3" d="M14.45,21.99s.04,0,.05.01c.09.03.19.06.29.09.02,0,.04.02.06.02.1.04.2.09.3.14.45.23,1.05.43,1.78.6.06.02.12.03.17.04.02,0,.03,0,.05.01.02,0,.04.01.06.01,0,0,.01,0,.02,0,.04,0,.07.01.1.02.01,0,.03,0,.04,0,.04,0,.07,0,.1,0,0,0,0,0,.01,0,0,0,.02,0,.03,0,.01,0,.03,0,.05,0,.01,0,.03,0,.05,0,.02,0,.04,0,.07-.01,0,0,.01,0,.02,0,.02,0,.04-.01.06-.02.02,0,.03,0,.05-.01.05-.01.1-.03.16-.04.02,0,.05-.01.07-.02.03-.01.05-.02.07-.04,0,0,.01,0,.02-.01,0,0,.01,0,.02-.01.01,0,.03-.02.04-.03.03-.03.05-.05.08-.09,0,0,0,0,0,0,.03-.04.05-.1.07-.15,0-.01,0-.03.01-.04.01-.06.02-.12.03-.2,0-.03,0-.06,0-.09-.02-.09-.06-.15-.13-.2l-.55-.37c.09.06.14.16.14.29,0,.07-.01.14-.03.2,0,.01,0,.03-.01.04-.02.06-.04.11-.07.15,0,0,0,0,0,0-.03.05-.07.08-.11.12,0,0,0,0-.02.01-.05.03-.1.06-.16.07-.06.02-.11.03-.16.04-.02,0-.03,0-.05.01-.03,0-.06.01-.08.02-.02,0-.05,0-.07.01-.02,0-.03,0-.05,0-.02,0-.03,0-.05,0-.01,0-.03,0-.04,0-.03,0-.06,0-.1,0-.01,0-.03,0-.04,0-.03,0-.06-.01-.1-.02-.03,0-.06-.01-.09-.02-.02,0-.03,0-.05-.01-.05-.01-.11-.03-.17-.04-.73-.16-1.33-.36-1.78-.6-.1-.05-.2-.1-.3-.14-.02,0-.04-.02-.06-.02-.1-.04-.19-.07-.29-.09-.02,0-.04,0-.05-.01-.04,0-.07-.02-.11-.03-.04,0-.08-.01-.12-.02-.03,0-.06-.01-.09-.01-.06,0-.12-.01-.17-.01-.07-.05-.1-.12-.1-.23,0-.04,0-.07.02-.1,0,0,.01-.02.02-.02,0-.02.02-.03.03-.05.02-.02.04-.03.07-.05,0,0,0,0,0,0,.03-.01.07-.02.11-.03.04,0,.07,0,.1.01.03,0,.06.02.09.03l-.55-.37s-.05-.03-.09-.03c0,0,0,0,0,0-.03,0-.06,0-.1,0-.01,0-.03,0-.04,0-.02,0-.04.01-.06.02,0,0,0,0,0,0,0,0,0,0,0,0-.01,0-.02.01-.03.02-.01,0-.02.02-.03.03,0,0,0,0,0,0-.01.01-.02.03-.03.05,0,0-.01.02-.02.02-.01.03-.02.06-.02.1,0,.05,0,.1.02.14.02.04.04.07.08.09l.55.37s-.07,0-.11,0c0,0-.02,0-.03,0,0,0,0,0-.01,0-.03,0-.07,0-.12.01,0,0-.01,0-.02,0-.05,0-.11.02-.17.03,0,0-.02,0-.02,0-.07.02-.14.04-.22.06-.02,0-.03.01-.05.02-.05.02-.11.04-.16.06-.02,0-.03.01-.05.02-.08.04-.16.08-.24.12,0,0,0,0,0,0-.07.04-.13.09-.19.13-.01,0-.02.02-.03.03-.01.01-.02.02-.03.03-.01.01-.02.02-.03.03-.01.02-.03.03-.04.05,0,.01-.02.02-.02.03-.01.02-.02.04-.02.06,0,.01,0,.02-.01.03,0,.03-.01.06-.01.1,0,.15.03.26.11.31l.55.37c-.08-.05-.11-.16-.11-.31,0-.03,0-.07.01-.1,0-.01,0-.02.01-.03,0-.02.01-.04.02-.06,0-.01.01-.02.02-.03.01-.02.02-.03.04-.05,0-.01.02-.02.03-.03.02-.02.04-.04.06-.06.06-.05.13-.1.2-.14.08-.05.16-.09.24-.12.07-.03.14-.05.2-.08.02,0,.03-.01.05-.02.08-.03.16-.05.24-.06.07-.01.12-.02.17-.03,0,0,.01,0,.02,0,.05,0,.08-.01.12-.01.01,0,.03,0,.04,0,.09,0,.19,0,.29.02.03,0,.06,0,.09.01.08.01.15.03.23.05Z"/>
    <path class="cls-3" d="M18.26,13.05c-.02-.07-.08-.15-.18-.23-.05-.04-.1-.08-.15-.11l-.55-.37c.05.04.1.07.15.11.1.08.16.16.18.23,0,.02,0,.03,0,.05,0,0,0,0,0,.01,0,0,0,.02-.01.02,0,0-.02.01-.03.02,0,0,0,0,0,0-.02,0-.03,0-.06,0-.07,0-.13,0-.2,0-.09,0-.18,0-.26-.02-.03,0-.05,0-.07-.01-.08-.01-.16-.03-.24-.05-.21-.06-.37-.13-.47-.2l.55.37c.1.07.26.14.47.2.05.01.1.03.15.04.03,0,.06,0,.09.01.02,0,.05,0,.07.01.09.01.17.02.26.02.04,0,.08,0,.12,0,.03,0,.05,0,.08,0,0,0,.01,0,.02,0,.01,0,.03,0,.04,0,0,0,0,0,0,0,0,0,0,0,0,0,0,0,0,0,.01,0,0,0,0,0,.01,0,0,0,0,0,.01,0,0,0,0,0,0,0,0,0,0-.01.01-.02,0,0,0,0,0-.01,0-.01,0-.03,0-.05Z"/>
    <path class="cls-3" d="M10.89,22.36s.04.01.05.02c.05.02.11.04.16.05.01,0,.02,0,.03,0,0,0,0,0,.01,0,.06.01.12.02.19.03,0,0,.01,0,.02,0,.02,0,.05,0,.07,0,0,0,0,0,.01,0,0,0,.01,0,.02,0,.01,0,.03,0,.04-.01.01,0,.02-.01.04-.02.01,0,.02-.01.04-.02,0,0,.01,0,.02,0,0,0,.02-.02.03-.02.03-.02.06-.04.09-.07,0,0,.02-.01.03-.02.02-.02.04-.03.06-.05.17-.16.25-.37.26-.63,0-.09-.06-.22-.18-.38-.06-.08-.12-.15-.18-.19l-.55-.37c.06.04.12.1.18.19.12.16.18.29.18.38,0,.26-.09.47-.26.63-.03.03-.06.05-.08.07-.03.03-.06.05-.09.07-.02.01-.03.02-.05.03-.01,0-.02.01-.04.02-.03.01-.05.02-.07.03,0,0-.01,0-.02,0-.03,0-.07.01-.1.01-.07,0-.13-.01-.19-.03-.02,0-.03,0-.04-.01-.06-.01-.11-.03-.16-.05-.02,0-.04-.01-.05-.02-.06-.03-.12-.06-.18-.1h0s0,0,0,0l.55.37c.06.04.12.07.18.1Z"/>
    <path class="cls-3" d="M19.12,9.38c-.06-.07-.14-.13-.21-.19l-.55-.37c.16.11.29.25.38.42.22.4.32.83.31,1.3-.01.4-.09.77-.24,1.1-.04.08-.08.16-.12.24-.02.03-.04.06-.06.1-.03.04-.05.08-.08.12-.02.03-.05.06-.07.09-.03.03-.05.07-.08.1-.03.03-.05.05-.08.08-.03.03-.06.06-.09.09l.55.37s0,0,0,0c.03-.03.06-.06.09-.09.03-.03.05-.05.08-.08.03-.04.06-.08.09-.12.02-.03.04-.05.06-.08.03-.05.06-.1.1-.15.01-.02.03-.04.04-.06.04-.08.08-.16.12-.24.15-.34.23-.71.24-1.1.01-.47-.09-.9-.31-1.3-.05-.09-.1-.17-.17-.24Z"/>
    <path class="cls-3" d="M10.44,20.38s-.02.02-.03.03c-.01.02-.02.04-.03.06,0,.01-.01.02-.02.04,0,.02-.02.05-.02.08,0,.01,0,.03-.01.04,0,.04-.01.09-.01.14,0,.09.02.24.06.44.03.12.07.21.14.25l.55.37c-.07-.05-.12-.13-.14-.25-.04-.2-.06-.34-.06-.44,0-.05,0-.1.01-.14,0-.01,0-.03.01-.04,0-.03.01-.05.02-.08,0-.01.01-.03.02-.04.01-.02.02-.04.03-.06,0-.01.02-.02.03-.03.02-.02.04-.04.06-.05.02-.01.04-.02.06-.04.02,0,.03-.02.05-.02.02,0,.03-.01.05-.02.02,0,.04-.01.05-.02.01,0,.03,0,.05,0,.03,0,.06,0,.09-.01.02,0,.05,0,.07,0,.06,0,.13,0,.19.02.02,0,.04,0,.06.01.05.01.1.03.15.05.02,0,.04.01.06.02.06.03.13.06.19.1,0,0,0,0,0,0h0s0,0,0,0l-.55-.37c-.06-.04-.13-.08-.19-.11-.02,0-.04-.02-.06-.02-.05-.02-.1-.03-.15-.05-.01,0-.02,0-.04-.01,0,0-.01,0-.02,0-.06-.01-.13-.02-.19-.02-.01,0-.03,0-.04,0,0,0-.02,0-.03,0-.03,0-.06,0-.09.01,0,0-.02,0-.03,0,0,0-.01,0-.02,0-.02,0-.04.01-.05.02-.01,0-.02,0-.03.01,0,0-.01,0-.02,0-.02,0-.03.02-.05.02-.01,0-.02,0-.03.02-.01,0-.02.01-.03.02-.01,0-.02.02-.03.03,0,0-.02.02-.02.03Z"/>
    <path class="cls-3" d="M14.46,15.25c.05,0,.11,0,.16,0,0,0,0,0,0,0,.05,0,.1,0,.15-.01.05,0,.1-.01.15-.01.05,0,.1,0,.16,0,.44,0,.93.02,1.47.07.27.02.55.06.82.1.28.04.56.09.85.15h0s0,0,0,0c.14-.26.21-.54.2-.84-.01-.3-.05-.62-.11-.94l-.55-.37c.06.33.1.64.11.94.01.23-.02.44-.1.64-.03.07-.06.13-.09.2-.57-.12-1.13-.2-1.67-.25-.54-.05-1.03-.07-1.47-.07-.05,0-.11,0-.16,0,0,0,0,0,0,0-.05,0-.1,0-.15.01-.05,0-.1.01-.15.01-.05,0-.1,0-.15,0,0,0,0,0,0,0h0s0,0,0,0l.55.37Z"/>
    <path class="cls-3" d="M15.85,11.62s-.05.05-.08.08c-.22.26-.34.45-.35.59,0,.28.16.55.51.79,0,0,.02.01.03.02l.55.37s-.02-.01-.03-.02c-.35-.24-.52-.51-.51-.79,0-.14.12-.34.35-.59.05-.06.11-.11.18-.15,0,0,.02-.01.03-.02.07-.04.14-.07.22-.1.03,0,.05-.02.08-.03.08-.02.15-.04.24-.06,0,0,.02,0,.03,0,.11-.02.23-.02.36-.02.08,0,.15,0,.23.02.02,0,.04,0,.06.01.04.01.08.02.12.04.02,0,.04.01.05.02.06.02.11.05.16.09l-.55-.37c-.05-.03-.1-.06-.16-.09-.02,0-.04-.01-.05-.02-.04-.02-.08-.03-.12-.04-.01,0-.02,0-.03,0,0,0-.02,0-.03,0-.07-.01-.15-.02-.23-.02-.05,0-.1,0-.15,0-.08,0-.15.01-.22.02,0,0-.02,0-.03,0-.05,0-.1.01-.14.03-.03,0-.06.02-.1.03-.03,0-.06.02-.08.03-.01,0-.03,0-.04.01-.06.02-.11.05-.16.08,0,0,0,0-.01,0-.01,0-.02.01-.03.02-.04.02-.07.05-.1.08Z"/>
    <path class="cls-3" d="M8.05,21.32s.02-.04.03-.05c.02-.02.04-.03.07-.04,0,0,0,0,0,0,.03,0,.06-.01.1-.01.03,0,.06,0,.08,0,.02,0,.04.01.06.02l-.55-.37s-.04-.02-.06-.02c0,0,0,0,0,0-.02,0-.05,0-.08,0,0,0-.01,0-.02,0-.02,0-.04,0-.06,0,0,0-.01,0-.02,0,0,0,0,0,0,0,0,0,0,0-.01,0-.01,0-.02,0-.03.01,0,0-.02.01-.03.02,0,0,0,0,0,0-.01.01-.02.03-.03.05,0,0-.01.02-.02.03-.01.03-.02.07-.02.11,0,.05,0,.09.02.13.01.03.03.06.06.08l.55.37c-.06-.04-.09-.11-.08-.21,0-.04,0-.08.02-.11,0-.01.01-.02.02-.03Z"/>
    <path class="cls-3" d="M9.7,22.2c.07.07.14.12.22.17l.55.37c-.07-.05-.15-.11-.22-.17-.3-.28-.58-.6-.82-.95-.24-.35-.47-.66-.68-.94-.05-.07-.1-.13-.16-.18-.05-.05-.1-.1-.16-.13l-.55-.37c.1.07.21.17.31.31.21.28.44.6.68.94.24.35.52.67.82.95Z"/>
    <path class="cls-3" d="M14.83,8.59s-.04.06-.07.08c-.04.03-.08.05-.13.06,0,0-.01,0-.02,0-.05.01-.1.02-.15.02-.08,0-.15,0-.21-.03-.01,0-.02,0-.03,0-.06-.02-.12-.04-.17-.07l.55.37s.1.06.17.07c0,0,.02,0,.03,0,0,0,.01,0,.02,0,.06.01.12.02.19.02.01,0,.02,0,.03,0,.03,0,.07,0,.1-.01,0,0,.01,0,.02,0,0,0,.01,0,.02,0,.01,0,.02,0,.03-.01.02,0,.04-.02.07-.03,0,0,.02-.01.03-.02.01,0,.02-.01.03-.02.02-.02.03-.04.04-.06,0-.01.02-.02.03-.04.02-.04.03-.09.03-.14,0-.25-.08-.44-.25-.56l-.55-.37c.17.12.26.3.25.56,0,.06-.01.1-.03.14,0,.01-.02.02-.03.04Z"/>
    <path class="cls-3" d="M18.29,1.85l-.55-.37c.12.08.23.19.32.3.29.4.42.92.4,1.58,0,.33-.1.64-.27.93-.04.07-.09.13-.14.18,0,0,0,.01-.02.02-.05.05-.11.09-.17.12-.01,0-.02.01-.04.02-.07.03-.14.06-.21.07-.02,0-.04,0-.07,0-.07.01-.15.02-.23.02s-.16,0-.23-.03c-.01,0-.02,0-.03,0-.06-.02-.12-.04-.17-.08,0,0,0,0,0,0h0s0,0,0,0l.55.37c.05.03.11.06.17.08,0,0,.02,0,.03,0,0,0,.01,0,.02,0,.06.01.13.02.21.02.03,0,.05,0,.08,0,.05,0,.1-.01.15-.02.02,0,.05,0,.07,0,0,0,0,0,.01,0,.05-.01.11-.03.15-.05.02,0,.03-.01.04-.02.01,0,.02-.01.04-.02.01,0,.03-.01.05-.02.04-.03.08-.06.12-.09,0,0,0,0,0,0,0,0,0-.01.01-.02.05-.05.1-.11.14-.18.17-.29.26-.6.27-.93.02-.65-.11-1.18-.4-1.58-.04-.06-.09-.12-.14-.17s-.11-.1-.17-.14Z"/>
    <path class="cls-3" d="M16.76,3.52s-.07-.03-.11-.04c0,0,0,0,0,0-.04,0-.08-.01-.13-.01,0,0-.01,0-.02,0-.02,0-.05,0-.07,0-.01,0-.02,0-.03,0,0,0,0,0-.01,0,0,0,0,0-.01,0-.02,0-.03.02-.05.03-.01,0-.02.02-.03.03,0,0,0,0-.01,0,0,0,0,0,0,0-.02.02-.04.04-.05.06,0,.01-.02.02-.03.03-.03.04-.05.09-.07.14-.09.22-.13.39-.14.51,0,.16.02.31.09.43.06.13.16.23.29.32l.55.37c-.26-.17-.38-.43-.37-.75,0-.12.05-.29.14-.51.02-.05.05-.1.07-.14,0-.01.02-.02.03-.03.02-.03.04-.05.06-.07,0,0,0,0,.01,0,.03-.02.06-.04.1-.06,0,0,0,0,.01,0,.04-.01.08-.02.12-.02.05,0,.09,0,.13.01.04,0,.08.02.11.04,0,0,0,0,0,0h0s0,0,0,0l-.55-.37Z"/>
    <path class="cls-3" d="M13.03,7.98c.06.4.19.73.4,1.02.03.04.06.07.09.1s.07.06.11.09l.55.37c-.08-.05-.15-.12-.21-.19-.21-.28-.34-.62-.4-1.02l-.55-.37Z"/>
    <path class="cls-3" d="M15.09,7.3c-.07-.05-.15-.09-.23-.12-.03-.01-.05-.02-.08-.03-.06-.02-.12-.04-.18-.05-.01,0-.03,0-.04-.01-.03,0-.06,0-.09-.01-.02,0-.04,0-.07-.01-.08,0-.15-.01-.23-.01-.04,0-.08,0-.12,0,0,0-.01,0-.02,0-.06,0-.11,0-.16.01-.06,0-.12.02-.19.04-.02,0-.04.01-.07.02l.55.37c.09-.02.18-.04.26-.05.05,0,.1-.01.16-.01.04,0,.09,0,.14,0,.08,0,.16,0,.23.01.02,0,.05,0,.07.01.04,0,.09.02.13.03.06.01.12.03.18.05.03,0,.05.02.08.03.08.03.16.07.23.12,0,0,0,0,0,0h0s0,0,0,0l-.55-.37Z"/>
    <path class="cls-3" d="M8,13.22c-.03.11-.07.21-.11.32-.01.03-.03.05-.05.08,0,0-.01.02-.02.02-.01.02-.03.03-.05.05,0,0-.02.02-.03.02-.02.02-.04.03-.07.05-.02.01-.04.02-.06.04-.05.03-.1.05-.16.06,0,0-.02,0-.03,0-.06.01-.12.02-.18.02-.05,0-.11,0-.16,0-.02,0-.04,0-.06,0-.02,0-.04-.01-.06-.02l.55.37s.04.02.06.02c0,0,0,0,0,0,.02,0,.04,0,.06,0,.06,0,.11,0,.16,0,.02,0,.04,0,.06,0,.04,0,.08,0,.12-.02,0,0,.02,0,.03,0,0,0,0,0,0,0,.04,0,.07-.02.1-.03.02,0,.04-.02.06-.03.01,0,.03-.01.04-.02,0,0,.01,0,.02-.01.02-.02.05-.03.07-.05,0,0,.01,0,.02-.01,0,0,0,0,0,0,.02-.02.03-.03.05-.05,0,0,.01-.02.02-.02.02-.03.04-.05.05-.08.05-.11.09-.21.11-.32.02-.11.05-.19.08-.26l-.55-.37c-.03.07-.05.16-.08.26Z"/>
    <path class="cls-3" d="M13.23,3.84c.15-.42.37-.81.66-1.17.08-.11.17-.21.26-.31.03-.03.06-.06.09-.09.07-.07.14-.14.21-.2.03-.03.06-.06.09-.09.11-.1.22-.19.34-.28.11-.08.23-.16.35-.23.04-.03.09-.05.13-.08.06-.03.11-.07.17-.1.05-.02.09-.05.14-.07.06-.03.12-.05.18-.08.08-.03.15-.07.23-.09.09-.03.19-.06.28-.09.03,0,.05-.01.08-.02.06-.02.12-.03.18-.04.05-.01.1-.02.16-.03.05,0,.1-.02.16-.02.05,0,.1-.01.16-.01.08,0,.16-.01.24-.01.11,0,.21,0,.31.02.03,0,.06,0,.09.01.08.01.16.03.23.05.02,0,.03,0,.05.01.09.03.17.06.26.1.02,0,.04.02.05.03.08.04.17.09.25.14l-.55-.37c-.08-.05-.16-.1-.25-.14-.02,0-.04-.02-.05-.03-.08-.04-.17-.07-.26-.1-.02,0-.03,0-.05-.01-.04-.01-.08-.02-.12-.03-.04,0-.07-.01-.11-.02-.03,0-.06-.01-.09-.01-.1-.01-.2-.02-.31-.02-.06,0-.11,0-.17,0-.02,0-.05,0-.07,0-.05,0-.1,0-.16.01-.05,0-.1.01-.16.02s-.1.02-.16.03c-.03,0-.06,0-.08.02-.03,0-.06.02-.1.03-.03,0-.05.01-.08.02-.09.03-.19.06-.28.09-.06.02-.11.04-.16.06-.02,0-.05.02-.07.03-.06.03-.12.05-.18.08-.05.02-.09.05-.14.07-.06.03-.11.06-.17.1-.03.02-.06.03-.09.05-.01,0-.03.02-.04.03-.12.07-.23.15-.35.23-.12.09-.23.18-.34.28-.01.01-.03.02-.04.03-.02.02-.03.03-.05.05-.07.07-.14.13-.21.2-.03.03-.06.06-.09.09-.09.1-.18.2-.26.31-.22.27-.39.56-.53.86-.05.1-.09.2-.13.31h0s.55.37.55.37Z"/>
    <path class="cls-3" d="M11.53,2.79c-.13-.12-.26-.23-.4-.32,0,0-.01,0-.02-.01l-.55-.37s.01,0,.02.01c.27.19.53.43.77.72.24.29.47.62.68.98.21.36.39.73.54,1.1.1.47.19.87.28,1.21.04.17.07.35.09.54,0,.09.01.19.02.29,0,.1,0,.2,0,.31-.03.01-.05.02-.08.03-.13.05-.25.11-.36.17-.03.01-.05.03-.08.04-.03.02-.07.04-.1.06-.1.06-.19.12-.28.19-.01,0-.02.02-.03.03-.07.05-.13.1-.2.16-.04.03-.07.07-.1.1-.03.03-.06.06-.09.09-.1.11-.2.22-.3.35-.41.56-.62,1.12-.64,1.68-.01.44.07.83.24,1.15.17.33.39.64.66.93.27.29.55.59.84.89.29.3.55.66.77,1.05.06.14.1.27.09.38,0,.03,0,.06-.02.09,0,0-.01.02-.02.03-.01.02-.02.04-.04.05-.02.02-.05.04-.09.06-.02.01-.05.02-.07.04-.02.01-.05.02-.07.03-.07.03-.15.05-.23.08-.02,0-.04.01-.06.02-.08.02-.17.05-.26.07-.07.02-.14.03-.21.04-.3.06-.6.11-.9.14-.07,0-.13.02-.19.02-.02,0-.04,0-.05,0-.04,0-.08.01-.12.02-.02,0-.03,0-.05,0-.04,0-.08.02-.12.02,0,0-.02,0-.03,0,0,0,0,0,0,0-.04.01-.08.02-.12.03l.55.37s.08-.02.13-.03c0,0,.02,0,.03,0,.04,0,.08-.02.12-.02.02,0,.03,0,.05,0,.04,0,.08-.01.12-.02.02,0,.04,0,.05,0,.06,0,.12-.02.19-.02.3-.04.6-.08.9-.14.07-.01.14-.03.21-.04,0,0,0,0,0,0,.09-.02.18-.04.26-.07.02,0,.04-.01.06-.02.08-.02.16-.05.23-.08,0,0,.01,0,.02,0,.02,0,.03-.02.05-.03.03-.01.05-.02.07-.04,0,0,0,0,.01,0,.03-.02.05-.04.08-.06,0,0,0,0,0,0,.02-.02.03-.03.04-.05,0,0,.02-.02.02-.03.01-.03.02-.06.02-.09,0-.12-.03-.25-.09-.38-.22-.4-.47-.75-.77-1.05-.29-.3-.57-.6-.84-.89-.27-.29-.49-.6-.66-.93-.18-.33-.26-.71-.24-1.15.02-.56.23-1.12.64-1.68.09-.12.19-.24.3-.35.03-.03.06-.06.09-.09.1-.09.2-.18.3-.26.01,0,.02-.02.03-.03.12-.09.25-.17.38-.25.03-.01.05-.03.08-.04.14-.08.29-.14.44-.2h0s0,0,0,0c.01-.42-.02-.8-.1-1.14-.08-.34-.17-.74-.28-1.21-.15-.37-.33-.74-.54-1.1-.21-.36-.44-.69-.68-.98-.12-.15-.25-.28-.38-.4Z"/>
    <path class="cls-3" d="M18.54,8.04s-.06-.02-.09-.03c-.07-.02-.13-.05-.2-.06-.01,0-.03,0-.04-.01-.04,0-.09-.01-.13-.02-.03,0-.06-.01-.09-.01-.1-.01-.2-.02-.3-.02-.01,0-.03,0-.04,0-.04,0-.07,0-.1.01,0,0-.01,0-.02,0,0,0,0,0-.01,0,0,0-.02,0-.03,0-.02,0-.03.01-.05.02-.02,0-.03.02-.04.03,0,0,0,0,0,0-.02.02-.04.05-.05.08,0,.01-.02.02-.02.03-.02.04-.03.09-.03.15,0,.07.02.14.08.21.02.03.05.05.08.07l.55.37s-.05-.04-.08-.07c-.06-.07-.08-.14-.08-.21,0-.06.01-.11.03-.15,0-.01.02-.02.02-.04.01-.03.03-.05.05-.07.03-.03.07-.05.11-.06,0,0,0,0,.01,0,.05-.01.1-.02.16-.02.11,0,.21,0,.3.02.03,0,.06,0,.09.01.06,0,.12.02.18.03.07.02.14.04.2.06.03.01.06.02.09.03.09.04.18.08.26.14l-.55-.37c-.08-.05-.17-.1-.26-.14Z"/>
    <path class="cls-3" d="M8.68,26.39c-.63-.93-1.07-1.97-1.33-3.1-.26-1.13-.37-2.25-.33-3.34,0-.06,0-.16.02-.28l.47.32c.05-.03.12-.05.18-.08.05-.02.1-.04.15-.06.06-.02.11-.03.17-.05.03,0,.06,0,.09-.01.04,0,.08-.01.11-.01.08,0,.15,0,.22.02.02,0,.04,0,.06.01.04.01.09.02.13.04.02,0,.04.01.05.02.06.03.11.05.17.09,0,0,0,0,0,0h0s0,0,0,0l-.55-.37c-.05-.04-.11-.06-.17-.09-.02,0-.04-.01-.05-.02-.04-.02-.08-.03-.13-.04-.01,0-.02,0-.03-.01,0,0-.02,0-.03,0-.04,0-.08-.01-.12-.02-.01-.03-.02-.06-.02-.09,0-.04,0-.08.02-.11,0-.01.01-.02.02-.03,0-.02.02-.04.03-.05.02-.02.04-.03.07-.04,0,0,0,0,0,0,.03,0,.06-.01.1-.01s.07,0,.1.01c.03,0,.06.02.08.03l-.55-.37s-.05-.03-.08-.03c0,0,0,0,0,0-.03,0-.06,0-.1,0,0,0-.01,0-.02,0-.02,0-.04,0-.06,0,0,0-.01,0-.02,0,0,0,0,0,0,0,0,0,0,0-.01,0-.01,0-.02,0-.03.01,0,0-.02.01-.03.02,0,0,0,0,0,0-.01.01-.02.03-.03.05,0,0-.01.02-.02.03-.01.03-.02.07-.02.11,0,.07.03.13.1.17l.42.28s-.03,0-.04,0c-.01,0-.03,0-.04,0-.02,0-.05,0-.07.01-.03,0-.06,0-.09.01,0,0-.01,0-.02,0-.05.01-.1.03-.15.04-.05.02-.09.04-.14.05,0,0,0,0-.01,0-.03.01-.06.03-.09.04,0-.02,0-.05,0-.07.02-.21.04-.44.07-.68.03-.22.06-.41.09-.59.03.03.07.07.11.1.07.06.14.11.22.17l.55.37c-.08-.05-.15-.11-.22-.17-.07-.06-.13-.12-.19-.18l-.46-.31s0-.04,0-.05c0-.05.02-.1.03-.14.03-.12.07-.21.1-.27h0c0-.06.01-.11.03-.17,0-.02.01-.04.02-.05.01-.04.02-.07.04-.11.01-.02.03-.04.04-.06.02-.03.04-.06.06-.09.02-.02.04-.04.06-.06.03-.03.06-.06.09-.09.1-.09.21-.17.32-.24.03-.02.06-.04.09-.06.11-.07.23-.14.35-.21.13-.07.27-.13.4-.18.15-.06.29-.11.44-.15.28-.08.49-.15.63-.19l.49-.14s0-.09.02-.12c.01-.03.02-.07.02-.12,0-.33-.1-.66-.32-1.02-.22-.35-.49-.65-.8-.91l-.55-.37c.31.26.58.56.8.91.22.35.33.69.32,1.02,0,.05,0,.09-.02.12-.02.04-.02.08-.02.12l-.49.14c-.14.05-.35.11-.63.19-.15.04-.29.09-.44.15,0,0-.01,0-.02,0-.13.05-.25.11-.38.17-.09.05-.18.09-.27.15-.03.02-.06.04-.09.06-.03.02-.06.04-.09.06-.11.08-.22.16-.32.24,0,0,0,0-.01.01-.03.03-.05.05-.08.08-.02.02-.04.04-.06.07-.02.03-.04.06-.06.09-.01.02-.03.04-.04.06-.02.03-.03.07-.04.11,0,.02-.02.04-.02.06-.01.06-.02.11-.03.17-.05.07-.09.21-.13.4-.04.2-.08.42-.11.66-.03.25-.05.47-.07.68-.02.21-.03.36-.03.45-.03,1.1.08,2.21.33,3.34.25,1.13.7,2.17,1.33,3.1.5.74,1.14,1.38,1.91,1.9l.55.37c-.77-.52-1.4-1.15-1.91-1.9Z"/>
    <path class="cls-3" d="M6.54,14.27l.55.37s-.05-.03-.07-.05c-.17-.14-.25-.38-.24-.73.01-.47.15-.82.41-1.07.03-.03.07-.06.1-.08.04-.03.08-.06.12-.09.05-.03.1-.06.15-.08.01,0,.03-.01.04-.02.07-.03.13-.05.2-.06.03,0,.05,0,.08-.01.06,0,.11-.02.17-.02.12,0,.24.01.38.04.05,0,.09.01.14.01.01,0,.03,0,.04,0,.01,0,.03,0,.04,0,.03,0,.05,0,.08-.01,0,0,.02,0,.02,0,.03,0,.06-.02.09-.03,0-.33-.03-.66-.11-1.02-.08-.35-.17-.7-.26-1.05-.09-.35-.18-.7-.25-1.05-.07-.35-.1-.68-.09-.98.01-.35.1-.72.27-1.1.03-.06.06-.11.09-.16,0-.01.02-.03.03-.04.03-.04.06-.07.09-.1.01-.01.02-.02.03-.03.03-.02.06-.04.09-.06.01,0,.02-.02.04-.03.02-.01.05-.03.08-.04.02,0,.04-.02.05-.03.05-.02.1-.04.15-.05,0,0,.01,0,.02,0,.06-.01.13-.02.2-.03.04,0,.07,0,.11,0,.06,0,.11,0,.15.02.05.01.09.03.13.05l-.55-.37s-.08-.04-.13-.05c0,0,0,0,0,0-.04,0-.09-.01-.15-.01-.03,0-.06,0-.08,0-.01,0-.02,0-.03,0-.07,0-.14.01-.2.03,0,0,0,0-.01,0,0,0,0,0,0,0-.05.01-.11.03-.15.05,0,0,0,0,0,0-.02,0-.03.02-.05.02-.03.01-.05.02-.08.04,0,0,0,0,0,0-.01,0-.02.02-.03.02-.03.02-.06.04-.09.06,0,0,0,0-.01,0,0,0-.01.02-.02.02-.03.03-.06.07-.09.11-.01.01-.02.03-.03.04-.03.05-.07.1-.09.16-.17.38-.26.75-.27,1.1,0,.3.02.63.09.98.07.35.15.7.25,1.05.09.35.18.7.26,1.05.08.35.12.69.11,1.02-.04.01-.08.02-.11.03-.03,0-.05,0-.08.01-.03,0-.06,0-.08,0-.05,0-.09,0-.14-.01-.14-.02-.26-.04-.38-.04-.02,0-.04,0-.06,0-.04,0-.07,0-.11.02-.03,0-.05,0-.08.01,0,0-.01,0-.02,0-.06.01-.12.03-.18.06,0,0,0,0,0,0-.01,0-.03.01-.04.02-.04.02-.09.04-.13.07,0,0-.01.01-.02.02-.04.03-.08.06-.12.09-.02.02-.05.03-.07.05-.01,0-.02.02-.03.03-.26.24-.4.6-.41,1.07-.01.35.07.6.24.73.02.02.05.04.07.05Z"/>
    <path class="cls-3" d="M9.38,4.12s.08.04.12.05c0,0,0,0,0,0,.04,0,.07.01.12.01,0,0,0,0,.01,0,.02,0,.04,0,.07,0,0,0,0,0,0,0,.01,0,.02,0,.04-.01.02,0,.03,0,.05-.02,0,0,0,0,.01,0,.05-.02.1-.05.16-.08,0,0,0,0,0,0,.04-.02.08-.05.12-.07.04-.03.07-.05.11-.07.03-.02.06-.03.08-.04.03-.01.05-.02.08-.03.03,0,.05-.02.08-.03.03,0,.05-.01.08-.02.04,0,.07-.01.11-.01.03,0,.07,0,.1,0,.04,0,.07,0,.1.01.04,0,.07.02.09.04l-.55-.37s-.06-.03-.09-.04c0,0,0,0,0,0-.03,0-.06,0-.1,0-.02,0-.04,0-.05,0-.02,0-.03,0-.05,0-.04,0-.07,0-.11.01-.01,0-.02,0-.03,0-.02,0-.03,0-.04.01-.03,0-.05.02-.08.03-.01,0-.02,0-.04.01-.01,0-.03.01-.04.02-.03.01-.06.03-.09.04-.01,0-.02.01-.04.02-.03.02-.05.03-.08.05-.04.03-.09.06-.13.08-.06.04-.11.06-.16.08-.02,0-.04.02-.06.02-.01,0-.02,0-.03.01-.03,0-.06.01-.09.01-.05,0-.09,0-.12-.02-.05-.01-.09-.03-.12-.05h0s0,0,0,0l.55.37Z"/>
    <path class="cls-3" d="M8.31,4.3s.08.08.13.11l.55.37c-.1-.06-.18-.15-.24-.26-.16-.27-.23-.59-.22-.96.01-.47.14-.9.39-1.31.04-.06.07-.12.12-.17.01-.02.03-.03.04-.04.03-.04.06-.07.1-.1.01-.01.03-.03.04-.04.05-.04.1-.08.16-.12,0,0,.01,0,.02,0,.04-.03.09-.05.14-.07.02,0,.03-.01.05-.02.04-.01.08-.03.12-.04.02,0,.04,0,.06-.01.07-.01.15-.03.22-.03.08,0,.15,0,.23,0,.11,0,.21,0,.32.01.03,0,.06,0,.09,0,.07,0,.14.02.21.03.03,0,.06.01.08.02.09.02.18.04.26.07.12.04.23.09.34.14.11.05.21.11.31.18h0s0,0,0,0l-.55-.37c-.19-.13-.41-.24-.65-.32-.08-.03-.17-.05-.26-.07-.01,0-.02,0-.03,0-.02,0-.04,0-.05,0-.07-.01-.14-.02-.21-.03-.03,0-.06,0-.09,0-.1,0-.21-.01-.32-.01-.07,0-.14,0-.21,0,0,0-.01,0-.02,0-.08,0-.15.02-.22.03,0,0-.02,0-.03,0-.01,0-.02,0-.03,0-.04.01-.08.02-.12.04-.01,0-.03,0-.04.01,0,0,0,0-.01,0-.05.02-.09.04-.14.07,0,0,0,0-.01,0,0,0,0,0,0,0-.05.03-.11.07-.16.12,0,0-.01,0-.02.01,0,0-.02.02-.02.03-.03.03-.07.07-.1.1-.01.01-.03.03-.04.04-.04.05-.08.11-.12.17-.24.41-.37.85-.39,1.31-.01.37.06.7.22.96.03.06.07.1.11.15Z"/>
    <path class="cls-5" d="M20.85,22.43c.14,0,.21.08.2.25s-.08.24-.21.24c-.16,0-.24-.07-.24-.21,0-.19.09-.28.25-.28Z"/>
    <path class="cls-5" d="M14.06,22.82c.14,0,.21.08.2.25s-.08.24-.21.24c-.16,0-.24-.07-.24-.21,0-.19.09-.28.25-.28Z"/>
    <path class="cls-5" d="M8.44,21.28c.07.05.1.11.1.17,0,.16-.1.25-.28.25-.16,0-.24-.08-.24-.25s.09-.24.25-.24c.09,0,.15.02.17.07Z"/>
    <path class="cls-5" d="M7.98,19.07c.18,0,.27.08.27.25,0,.12-.09.2-.25.24-.19-.05-.27-.13-.27-.24,0-.16.09-.25.25-.25Z"/>
    <path class="cls-6" d="M26.65,18.2c.43.21.64.49.63.84-.01.47-.2.85-.57,1.16-.37.3-.8.55-1.3.73-.5.19-1.01.33-1.53.44-.52.11-.96.18-1.3.23-.03,1.03-.16,2.01-.4,2.96-.24.94-.63,1.79-1.18,2.54-.55.75-1.3,1.34-2.25,1.79-.95.44-2.15.67-3.6.67-1.57,0-2.88-.29-3.93-.88-1.06-.58-1.9-1.34-2.53-2.28-.63-.93-1.07-1.97-1.33-3.1-.26-1.13-.37-2.25-.33-3.34,0-.09.01-.24.03-.45s.04-.44.07-.68c.03-.24.07-.47.11-.66.04-.2.08-.33.13-.4,0-.23.12-.45.35-.65.23-.2.48-.37.76-.51.28-.14.56-.25.84-.33.28-.08.49-.15.63-.19l.49-.14s0-.09.02-.12c.01-.03.02-.07.02-.12,0-.33-.1-.66-.32-1.02-.22-.35-.49-.65-.8-.91-.12.3-.34.55-.65.75-.31.2-.65.3-1.05.3-.26,0-.47-.07-.63-.21-.17-.14-.25-.38-.24-.73.01-.47.15-.82.41-1.07.26-.25.55-.37.88-.37.12,0,.24.01.38.04.05,0,.09.01.14.01.09,0,.18-.01.28-.05,0-.33-.03-.66-.11-1.02-.08-.35-.17-.7-.26-1.05-.09-.35-.18-.7-.25-1.05-.07-.35-.1-.68-.09-.98.01-.35.1-.72.27-1.1s.5-.58.99-.58c.28,0,.41.12.41.35,0,.14-.05.23-.15.28-.09.05-.2.09-.31.12-.12.04-.22.11-.32.23-.1.12-.15.32-.16.6,0,.3.02.66.07,1.05.06.4.12.82.19,1.26.07.44.14.87.21,1.3.07.42.11.81.12,1.15.45.33.84.75,1.17,1.26.33.51.5,1,.51,1.47.16-.05.39-.09.7-.12.3-.04.6-.08.9-.14.3-.06.56-.13.77-.21s.32-.18.32-.3-.03-.25-.09-.38c-.22-.4-.47-.75-.77-1.05-.29-.3-.57-.6-.84-.89-.27-.29-.49-.6-.66-.93-.18-.33-.26-.71-.24-1.15.02-.56.23-1.12.64-1.68s.95-.97,1.63-1.23c.01-.42-.02-.8-.1-1.14-.08-.34-.17-.74-.28-1.21-.15-.37-.33-.74-.54-1.1-.21-.36-.44-.69-.68-.98-.25-.29-.5-.53-.77-.72-.27-.19-.52-.28-.75-.28-.35,0-.63.16-.85.47-.22.31-.33.62-.34.93-.01.4.13.6.43.6.12,0,.27-.07.47-.21.2-.14.41-.21.64-.21.21,0,.31.11.3.32,0,.14-.08.26-.24.37-.15.11-.32.19-.49.26-.17.07-.35.12-.52.16-.17.04-.27.05-.29.05-.35,0-.6-.13-.75-.4-.16-.27-.23-.59-.22-.96.01-.47.14-.9.39-1.31.24-.41.59-.62,1.06-.65.08,0,.15,0,.23,0,.37,0,.69.05.96.14.33.12.62.28.87.49.25.21.46.46.65.74.19.28.37.57.55.87.15-.42.37-.81.66-1.17.29-.36.62-.68,1-.96.38-.28.77-.5,1.19-.65.42-.15.84-.23,1.25-.23.74,0,1.33.29,1.77.87.44.58.65,1.31.63,2.17-.02.54-.17.98-.45,1.33-.29.35-.73.52-1.33.52-.37,0-.7-.09-.99-.26-.29-.17-.44-.44-.43-.79,0-.12.05-.29.14-.51.09-.22.22-.33.41-.33.23,0,.34.09.34.28,0,.07-.03.16-.08.26-.05.11-.07.18-.08.23,0,.16.05.29.16.37.11.08.26.12.45.12.41,0,.71-.15.88-.44.17-.29.26-.6.27-.93.02-.65-.11-1.18-.4-1.58s-.78-.6-1.47-.6c-.42,0-.82.09-1.22.28-.4.19-.75.43-1.06.72-.31.29-.56.62-.76,1-.2.37-.3.76-.31,1.15.04.38.1.74.19,1.09.09.35.16.72.19,1.12l-.02.56c.09-.02.18-.04.26-.05.08-.01.18-.02.3-.02.39,0,.72.11.99.32.27.21.4.58.38,1.12,0,.33-.11.57-.3.72-.19.15-.41.23-.66.23-.55,0-.94-.14-1.15-.42-.21-.28-.34-.62-.4-1.02-.42.23-.8.55-1.13.96-.34.41-.51.85-.52,1.31s.11.83.38,1.17c.27.34.57.66.91.98.34.32.64.64.9.96.27.33.4.69.38,1.09,0,.19-.02.33-.05.42.12,0,.22,0,.31-.02.09-.01.2-.02.31-.02.44,0,.93.02,1.47.07.54.05,1.1.13,1.67.25.14-.26.21-.54.2-.84-.01-.3-.05-.62-.11-.94-.23.05-.41.07-.52.07-.51,0-.94-.12-1.29-.37-.35-.24-.52-.51-.51-.79,0-.14.12-.34.35-.59.23-.26.61-.39,1.14-.39.32,0,.59.11.8.33.21.22.38.49.51.82.24-.21.43-.49.58-.82.15-.34.23-.71.24-1.1.01-.47-.09-.9-.31-1.3-.22-.4-.59-.62-1.12-.66-.12-.02-.2-.07-.25-.14-.06-.07-.08-.14-.08-.21,0-.23.14-.35.39-.35.74,0,1.26.26,1.57.77.31.51.45,1.09.43,1.72-.02.7-.15,1.27-.38,1.72-.23.44-.53.78-.88,1.01.1.47.15.87.14,1.19-.01.38-.08.71-.2,1.02.48.12.93.24,1.35.37.42.13.79.28,1.11.45.32.18.57.36.76.56.19.2.28.41.28.65-.01.4,0,.79.01,1.19.02.4.05.79.09,1.19.17-.23.34-.49.51-.75.17-.27.35-.51.56-.72.2-.21.44-.38.71-.53.27-.14.6-.21.99-.21.48,0,.94.11,1.37.32ZM22.02,22.79c.04-.47.06-.84.07-1.12-.12.19-.29.31-.5.37-.21.06-.43.12-.66.17-.23.06-.46.12-.7.19-.23.07-.43.21-.6.42-.02.02-.07.04-.14.04-.16,0-.24-.08-.24-.25,0-.21.14-.37.41-.47.27-.11.57-.2.91-.28.34-.08.65-.19.94-.33.29-.14.48-.35.55-.63l-.05-.6c-.09-.05-.24-.07-.45-.07-.14,0-.28.04-.42.11-.14.07-.21.21-.22.42,0,.07,0,.15.03.23.02.08.03.16.03.23,0,.12-.07.17-.21.17s-.23-.09-.29-.26c-.05-.17-.08-.3-.07-.37,0-.3.15-.53.42-.66.27-.14.57-.21.89-.21.09,0,.18.02.27.07l-.07-1.26c-.36.42-.74.77-1.15,1.03s-.84.48-1.3.63c-.45.15-.91.26-1.38.31-.46.06-.91.09-1.35.09-.67,0-1.32-.03-1.95-.11-.63-.07-1.28-.15-1.95-.24-.18-.02-.51-.09-.98-.19-.47-.11-.97-.24-1.49-.4-.52-.16-1.04-.35-1.54-.56-.5-.21-.89-.45-1.15-.73-.05.19-.09.39-.12.61-.03.22-.05.44-.05.65v.21c.09-.05.2-.09.33-.14.13-.05.25-.07.37-.07.34,0,.64.13.87.4.24.27.46.57.68.91.22.34.45.65.68.93.23.28.54.43.9.46.14,0,.29-.08.46-.25.17-.16.25-.37.26-.63,0-.09-.06-.22-.18-.38-.12-.16-.24-.25-.36-.25s-.17.07-.18.21c0,.07.02.15.06.23.04.08.06.16.06.23,0,.16-.09.25-.25.25s-.26-.1-.3-.3c-.04-.2-.06-.34-.06-.44,0-.21.07-.35.19-.44.12-.08.26-.12.42-.12.25,0,.5.09.74.28.24.19.35.44.34.77s-.14.64-.39.93c-.25.29-.55.44-.89.44-.37,0-.71-.14-1.01-.42-.3-.28-.58-.6-.82-.95-.24-.35-.47-.66-.68-.94s-.42-.42-.63-.42c-.09,0-.19.03-.28.09-.09.06-.21.09-.35.09.08,1.05.26,2.09.53,3.12.27,1.03.69,1.95,1.25,2.77.56.82,1.31,1.48,2.23,2,.92.51,2.08.77,3.49.77,1.15,0,2.13-.15,2.93-.44.8-.29,1.47-.66,1.99-1.12.52-.45.93-.97,1.22-1.54s.51-1.13.64-1.68c.13-.55.22-1.06.25-1.52M26.18,19.97c.35-.2.53-.44.54-.72,0-.33-.13-.56-.41-.7-.28-.14-.59-.21-.91-.21-.42,0-.76.09-1.03.26-.27.18-.51.38-.71.63-.2.24-.39.52-.56.82-.17.3-.35.57-.54.81,0,.05,0,.09.01.14.01.05.02.09.01.14.23-.09.57-.19,1.03-.3.45-.11.91-.23,1.36-.37.45-.14.86-.31,1.21-.51M14.41,8.06c-.06.01-.12.03-.19.05.04.28.11.52.22.72.11.2.3.3.58.3.12,0,.21-.03.3-.09.08-.06.12-.14.13-.26,0-.26-.08-.44-.26-.56-.18-.12-.38-.17-.58-.17-.07,0-.13,0-.19.02M8.56,13.59c.02-.11.05-.19.08-.26-.23-.09-.39-.14-.48-.14-.16,0-.32.05-.49.14s-.25.24-.25.45c0,.07,0,.16.02.28.02.12.09.18.2.18.06,0,.11,0,.16,0,.15,0,.28-.03.37-.08.13-.07.22-.16.27-.26.05-.11.09-.21.11-.32M18.15,13.16c.09,0,.13-.04.11-.11-.02-.07-.08-.15-.18-.23-.1-.08-.21-.16-.34-.23-.13-.07-.23-.11-.33-.11-.32,0-.52.04-.59.12-.07.08-.06.16.04.24.1.08.27.16.51.23.18.05.37.08.57.08.07,0,.13,0,.2,0"/>
    <path class="cls-5" d="M19.84,21.52c-.14,0-.2-.08-.2-.24,0-.19.1-.28.28-.28.16,0,.24.07.23.21,0,.09-.04.17-.11.23-.07.06-.14.09-.21.09Z"/>
    <path class="cls-5" d="M18.48,21.58c.24.18.35.43.34.75,0,.26-.06.46-.16.6-.1.14-.21.25-.34.32-.13.07-.26.12-.4.14-.14.02-.27.03-.38.03-.34,0-.67-.05-.98-.16-.31-.11-.63-.22-.96-.35-.33-.13-.66-.25-.99-.35-.33-.11-.68-.16-1.05-.16-.21,0-.38.12-.53.35-.15.23-.28.35-.39.35-.18,0-.27-.12-.27-.35,0-.14.07-.26.2-.37.13-.11.28-.19.44-.26.16-.07.33-.12.49-.16.16-.03.28-.05.35-.05.42,0,.85.11,1.31.35.45.23,1.05.43,1.78.6.27.07.46.11.55.11.07,0,.23-.04.49-.11.26-.07.39-.27.4-.6,0-.16-.07-.27-.21-.33-.15-.06-.28-.09-.39-.09h-.31c-.14,0-.21.04-.21.11,0,.05.06.09.19.12.13.04.19.11.18.23,0,.14-.07.22-.21.24-.21,0-.38-.05-.52-.14-.13-.09-.2-.23-.2-.42,0-.26.13-.43.36-.53.23-.09.44-.14.63-.14.3,0,.57.09.8.26Z"/>
    <path class="cls-5" d="M13.55,21.59c-.16-.02-.24-.12-.23-.28,0-.14.09-.22.25-.24.18,0,.27.08.27.24s-.1.26-.28.28Z"/>
  </g>
  <g>
    <path class="cls-3" d="M6.69,10.53c-.06-.09-.17-.19-.32-.31-.02-.01-.03-.03-.05-.04l-.42-.28s.04.03.05.04c.15.11.26.22.32.31.04.06.07.1.1.12l.42.28s-.06-.06-.1-.12Z"/>
    <path class="cls-3" d="M4.45,10.74s-.05-.02-.07-.03c0,0,0,0,0,0-.02,0-.05,0-.07,0,0,0-.01,0-.02,0-.02,0-.04,0-.05,0,0,0,0,0-.01,0,0,0,0,0-.01,0,0,0-.01,0-.02,0-.01,0-.03.01-.04.02,0,0,0,0-.01,0,0,0,0,0-.01,0,0,0-.01,0-.02.01,0,0-.02.02-.03.03,0,0-.01.01-.02.02-.02.02-.03.05-.05.08-.02.03-.03.06-.05.09,0,0-.01.01-.02.02-.01.02-.03.03-.04.05,0,0,0,0,0,0-.02.02-.04.03-.06.04,0,0,0,0-.01,0-.02.01-.05.02-.07.02-.03,0-.07,0-.1,0-.05,0-.1,0-.15-.02,0,0-.02,0-.03,0-.04-.01-.09-.03-.12-.06l.42.28s.08.04.12.06c0,0,.02,0,.03,0,0,0,.02,0,.02,0,.04,0,.08.01.13.01.01,0,.02,0,.04,0,.02,0,.04,0,.07,0,0,0,.01,0,.02,0,.01,0,.03,0,.04-.01,0,0,0,0,.01,0,0,0,0,0,.01,0,0,0,.01,0,.02,0,.01,0,.03-.02.04-.03,0,0,0,0,0,0,0,0,0,0,0,0,.01-.01.03-.03.04-.04,0,0,.01-.01.02-.02.02-.03.04-.06.05-.09.01-.03.03-.06.05-.08,0,0,.01-.01.02-.02.01-.02.03-.03.04-.04,0,0,0,0,.01,0,.02-.01.04-.02.07-.03,0,0,0,0,.01,0,.03,0,.05-.01.08-.01s.05,0,.08,0c.03,0,.05.02.07.03,0,0,0,0,0,0h0s0,0,0,0l-.42-.28Z"/>
    <path class="cls-3" d="M5.91,9.41s.01,0,.02,0c.13.04.25.09.36.14.12.06.23.12.33.19l-.42-.28c-.1-.07-.21-.13-.33-.19-.11-.05-.24-.1-.36-.14,0,0-.01,0-.02,0-.12-.04-.25-.07-.39-.1,0,0-.01,0-.02,0-.01,0-.02,0-.03,0-.31-.06-.62-.09-.93-.09-.06,0-.13,0-.19,0-.03,0-.06,0-.09,0-.03,0-.07,0-.1,0-.07,0-.14.02-.2.03-.02,0-.05,0-.07.01,0,0-.01,0-.02,0-.03,0-.05.02-.08.03-.06.02-.12.03-.17.05,0,0-.02,0-.03,0-.06.02-.12.05-.17.08,0,0-.01,0-.02.01,0,0-.01.01-.02.02-.03.02-.06.04-.08.06,0,0-.01,0-.02.01,0,0,0,0-.01.01-.04.04-.08.08-.11.12,0,0,0,.01-.01.02-.03.04-.06.09-.08.14,0,0,0,.02-.01.03-.02.05-.04.11-.06.18,0,.01,0,.03,0,.04-.01.07-.02.14-.03.21-.05.55.04.98.26,1.29.07.1.15.18.25.24l.42.28c-.09-.06-.18-.14-.25-.24-.23-.31-.32-.74-.26-1.29,0-.07.02-.14.03-.21,0-.01,0-.03,0-.04.01-.06.03-.12.06-.18,0,0,0-.02.01-.03.02-.05.05-.1.08-.14,0,0,0-.01.01-.02.03-.05.07-.09.11-.12,0,0,.02-.02.03-.03.03-.02.05-.04.08-.06.01,0,.03-.02.04-.03.06-.03.13-.06.2-.09.05-.02.11-.04.17-.05.03,0,.07-.02.1-.03.02,0,.05,0,.07-.01.06-.01.13-.02.2-.03.03,0,.07,0,.1,0,.09,0,.18-.01.28-.01.32,0,.63.03.93.09.02,0,.03,0,.05.01.14.03.27.06.39.1Z"/>
    <path class="cls-1" d="M6.88,9.95c.15.15.23.32.22.49-.06.14-.15.21-.27.21-.03,0-.08-.04-.14-.13-.06-.09-.17-.19-.32-.31-.15-.12-.37-.22-.64-.31-.27-.09-.64-.13-1.12-.13-.33,0-.62.04-.86.12-.24.08-.36.23-.37.44,0,.23.05.48.17.73.11.23.28.34.51.34.03,0,.07,0,.1,0,.1-.02.19-.09.26-.23.07-.13.16-.2.28-.2.17,0,.26.11.25.32-.1.25-.21.42-.33.52-.13.1-.26.16-.4.17-.05,0-.09,0-.14,0-.39,0-.69-.14-.89-.42-.23-.31-.32-.74-.26-1.29.03-.41.18-.69.46-.85.28-.16.65-.24,1.13-.24.32,0,.63.03.93.09.3.06.58.15.82.27.24.12.44.25.59.4Z"/>
  </g>
</svg>